<svg width="40" height="40" viewBox="0 0 40 40" fill="none" xmlns="http://www.w3.org/2000/svg">
<g clip-path="url(#clip0_20:30)">
<path d="M2 11H4.22223C7.43179 11 10.5532 13.3368 13.1103 17.6537L14.5 20M14.5 20L15.8897 22.3463C18.4468 26.6632 21.5682 29 24.7778 29H33M14.5 20L13.1103 22.3463C10.5532 26.6632 7.43179 29 4.22223 29H2M14.5 20L15.8897 17.6537C18.4468 13.3368 21.5682 11 24.7778 11H33" stroke="#1C1C1C" stroke-width="4"/>
<path d="M40 11L31.75 14.4641V7.5359L40 11Z" fill="#1C1C1C"/>
<path d="M40 29L31.75 32.4641V25.5359L40 29Z" fill="#1C1C1C"/>
</g>
<defs>
<clipPath id="clip0_20:30">
<rect width="40" height="40" fill="white"/>
</clipPath>
</defs>
</svg>
