<svg width="29" height="29" viewBox="0 0 29 29" fill="none" xmlns="http://www.w3.org/2000/svg">
<rect x="13" y="13" width="3" height="3" fill="black"/>
<rect x="15" y="11" width="3" height="3" fill="black"/>
<rect x="17" y="9" width="3" height="3" fill="black"/>
<rect x="19" y="7" width="3" height="3" fill="black"/>
<rect x="21" y="5" width="3" height="3" fill="black"/>
<rect x="15" y="15" width="3" height="3" fill="black"/>
<rect x="17" y="17" width="3" height="3" fill="black"/>
<rect x="19" y="19" width="3" height="3" fill="black"/>
<rect x="21" y="21" width="3" height="3" fill="black"/>
<rect x="11" y="11" width="3" height="3" fill="black"/>
<rect x="9" y="9" width="3" height="3" fill="black"/>
<rect x="7" y="7" width="3" height="3" fill="black"/>
<rect x="5" y="5" width="3" height="3" fill="black"/>
<rect x="11" y="15" width="3" height="3" fill="black"/>
<rect x="9" y="17" width="3" height="3" fill="black"/>
<rect x="7" y="19" width="3" height="3" fill="black"/>
<rect x="5" y="21" width="3" height="3" fill="black"/>
</svg>
